<svg xmlns="http://www.w3.org/2000/svg" xmlns:xlink="http://www.w3.org/1999/xlink" width="113.842" height="101.604" viewBox="0 0 113.842 101.604">
  <defs>
    <clipPath id="clip-path">
      <rect id="Rectangle_447908" data-name="Rectangle 447908" width="92" height="89" transform="translate(806.051 2698)" fill="#fff" stroke="#707070" stroke-width="1"/>
    </clipPath>
    <clipPath id="clip-path-2">
      <path id="path1371" d="M0-89H89V0H0Z"/>
    </clipPath>
  </defs>
  <g id="Group_1212417" data-name="Group 1212417" transform="translate(-792.781 -2693.272)">
    <g id="Group_1211836" data-name="Group 1211836" transform="translate(792.781 2693.272)">
      <ellipse id="Ellipse_22502" data-name="Ellipse 22502" cx="28.658" cy="28.658" rx="28.658" ry="28.658" transform="translate(56.527 44.289)" fill="#d0b2ea"/>
      <ellipse id="Ellipse_22503" data-name="Ellipse 22503" cx="20.842" cy="20.842" rx="20.842" ry="20.842" fill="#d0b2ea"/>
    </g>
    <g id="Mask_Group_1099774" data-name="Mask Group 1099774" clip-path="url(#clip-path)">
      <g id="g1365" transform="translate(807.551 2787)">
        <g id="g1367">
          <g id="g1369" clip-path="url(#clip-path-2)">
            <g id="g1375" transform="translate(60.258 -32.473)">
              <path id="path1377" d="M0,0A15.828,15.828,0,0,0,2.654,24.51v3.225A3.294,3.294,0,0,1-.633,30.828h-54.4a3.292,3.292,0,0,1-3.292-3.292V-51.5a3.292,3.292,0,0,1,3.292-3.292H-16.4a3.023,3.023,0,0,1,1.251.271V-39.1a2.124,2.124,0,0,0,2.124,2.122H2.388A3.015,3.015,0,0,1,2.66-35.73V-2.14A15.659,15.659,0,0,0,0,0" fill="#eff3f3"/>
            </g>
            <g id="g1379" transform="translate(82.629 -10.101)">
              <path id="path1381" d="M0,0A15.822,15.822,0,0,1-19.717,2.138,15.86,15.86,0,0,1-22.372,0a15.822,15.822,0,0,1,0-22.372,15.659,15.659,0,0,1,2.66-2.14A15.824,15.824,0,0,1,0-22.372,15.822,15.822,0,0,1,0,0" fill="#99ebfa"/>
            </g>
            <g id="g1383" transform="translate(71.391 -30.109)">
              <path id="path1385" d="M0,0,2.752,5.576l6.154.894L4.453,10.81,5.5,16.939,0,14.045l-5.5,2.894,1.051-6.129L-8.905,6.47l6.154-.894Z" fill="#ffcd69"/>
            </g>
            <g id="g1387" transform="translate(62.646 -69.455)">
              <path id="path1389" d="M0,0H-15.411a2.124,2.124,0,0,1-2.124-2.122V-17.536a3.007,3.007,0,0,1,.887.614L-.613-.885A3.028,3.028,0,0,1,0,0" fill="#ccf5fc"/>
            </g>
            <g id="g1391" transform="translate(12.444 -63.033)">
              <path id="path1393" d="M0,0H24.234" fill="none" stroke="#000" stroke-linecap="round" stroke-linejoin="round" stroke-miterlimit="10" stroke-width="3.477"/>
            </g>
            <g id="g1395" transform="translate(12.444 -31.759)">
              <path id="path1397" d="M0,0H30.278" fill="none" stroke="#000" stroke-linecap="round" stroke-linejoin="round" stroke-miterlimit="10" stroke-width="3.477"/>
            </g>
            <g id="g1399" transform="translate(12.444 -21.334)">
              <path id="path1401" d="M0,0H30.278" fill="none" stroke="#000" stroke-linecap="round" stroke-linejoin="round" stroke-miterlimit="10" stroke-width="3.477"/>
            </g>
            <g id="g1403" transform="translate(12.444 -42.184)">
              <path id="path1405" d="M0,0H40.052" fill="none" stroke="#000" stroke-linecap="round" stroke-linejoin="round" stroke-miterlimit="10" stroke-width="3.477"/>
            </g>
            <g id="g1407" transform="translate(71.391 -30.109)">
              <path id="path1409" d="M0,0,2.752,5.576l6.154.894L4.453,10.81,5.5,16.939,0,14.045l-5.5,2.894,1.051-6.129L-8.905,6.47l6.154-.894Z" fill="none" stroke="#000" stroke-linecap="round" stroke-linejoin="round" stroke-miterlimit="10" stroke-width="3.477"/>
            </g>
            <g id="g1411" transform="translate(62.917 -34.613)">
              <path id="path1413" d="M0,0V-33.59a3.021,3.021,0,0,0-.885-2.136L-16.92-51.764a3.025,3.025,0,0,0-2.138-.885H-57.692a3.292,3.292,0,0,0-3.292,3.292V29.676a3.292,3.292,0,0,0,3.292,3.292h54.4A3.294,3.294,0,0,0-.005,29.874V26.653" fill="none" stroke="#000" stroke-linecap="round" stroke-linejoin="round" stroke-miterlimit="10" stroke-width="3.477"/>
            </g>
            <g id="g1415" transform="translate(45.11 -86.991)">
              <path id="path1417" d="M0,0V15.413a2.124,2.124,0,0,0,2.124,2.122H17.536" fill="none" stroke="#000" stroke-linecap="round" stroke-linejoin="round" stroke-miterlimit="10" stroke-width="3.477"/>
            </g>
            <g id="g1419" transform="translate(82.629 -32.472)">
              <path id="path1421" d="M0,0A15.818,15.818,0,0,1,0,22.37a15.818,15.818,0,0,1-22.37,0A15.818,15.818,0,0,1-22.37,0,15.818,15.818,0,0,1,0,0Z" fill="none" stroke="#000" stroke-linecap="round" stroke-linejoin="round" stroke-miterlimit="10" stroke-width="3.477"/>
            </g>
            <g id="g1423" transform="translate(12.27 -52.496)">
              <path id="path1425" d="M0,0H31.361" fill="none" stroke="#000" stroke-linecap="round" stroke-linejoin="round" stroke-miterlimit="10" stroke-width="3.477"/>
            </g>
            <g id="g1427" transform="translate(52.281 -52.496)">
              <path id="path1429" d="M0,0H0Z" fill="none" stroke="#000" stroke-linecap="round" stroke-linejoin="round" stroke-miterlimit="10" stroke-width="3.477"/>
            </g>
          </g>
        </g>
      </g>
    </g>
  </g>
</svg>
