<svg xmlns="http://www.w3.org/2000/svg" xmlns:xlink="http://www.w3.org/1999/xlink" width="113.842" height="101.604" viewBox="0 0 113.842 101.604">
  <defs>
    <clipPath id="clip-path">
      <rect id="Rectangle_447908" data-name="Rectangle 447908" width="92" height="89" transform="translate(806.051 2698)" fill="#fff" stroke="#707070" stroke-width="1"/>
    </clipPath>
  </defs>
  <g id="Group_1212425" data-name="Group 1212425" transform="translate(-792.781 -2693.272)">
    <g id="Group_1211836" data-name="Group 1211836" transform="translate(792.781 2693.272)">
      <ellipse id="Ellipse_22502" data-name="Ellipse 22502" cx="28.658" cy="28.658" rx="28.658" ry="28.658" transform="translate(56.527 44.289)" fill="#f99f1a"/>
      <ellipse id="Ellipse_22503" data-name="Ellipse 22503" cx="20.842" cy="20.842" rx="20.842" ry="20.842" fill="#f99f1a"/>
    </g>
    <g id="Mask_Group_1099780" data-name="Mask Group 1099780" clip-path="url(#clip-path)">
      <g id="Layer_11" data-name="Layer 11" transform="translate(806.115 2696.564)">
        <path id="Path_1333861" data-name="Path 1333861" d="M89,31.581V89H37.323V17.226H74.645Z" fill="#c8cded"/>
        <path id="Path_1333862" data-name="Path 1333862" d="M54.548,17.226v60.29H2.871V2.871H40.194Z" fill="#e2e7f6"/>
        <path id="Path_1333863" data-name="Path 1333863" d="M50.242,70.339V12.919L40.194,2.871H2.871V70.339Z" fill="#f2f2f2"/>
        <path id="Path_1333864" data-name="Path 1333864" d="M74.645,17.226V31.581H89" fill="#858bb5"/>
        <path id="Path_1333865" data-name="Path 1333865" d="M40.194,2.871V17.226H54.548" fill="#c8cded"/>
        <path id="Path_1333866" data-name="Path 1333866" d="M8.613,15.79h8.613V24.4H8.613Z" fill="#559b2d"/>
        <path id="Path_1333867" data-name="Path 1333867" d="M14.355,20.1V15.79H8.613v5.742h4.306A1.435,1.435,0,0,0,14.355,20.1Z" fill="#6bc13b"/>
        <path id="Path_1333868" data-name="Path 1333868" d="M8.613,35.887h8.613V44.5H8.613Z" fill="#559b2d"/>
        <path id="Path_1333869" data-name="Path 1333869" d="M8.613,58.855h8.613v8.613H8.613Z" fill="#559b2d"/>
        <g id="Group_1213916" data-name="Group 1213916">
          <path id="Path_1333870" data-name="Path 1333870" d="M21.532,15.79H35.887v2.871H21.532Z" fill="#c8cded"/>
          <path id="Path_1333871" data-name="Path 1333871" d="M21.532,21.532h28.71V24.4H21.532Z" fill="#c8cded"/>
          <path id="Path_1333872" data-name="Path 1333872" d="M21.532,35.887H35.887v2.871H21.532Z" fill="#c8cded"/>
          <path id="Path_1333873" data-name="Path 1333873" d="M21.532,41.629H35.887V44.5H21.532Z" fill="#c8cded"/>
          <path id="Path_1333874" data-name="Path 1333874" d="M21.532,58.855H35.887v2.871H21.532Z" fill="#c8cded"/>
          <path id="Path_1333875" data-name="Path 1333875" d="M21.532,64.6h20.1v2.871h-20.1Z" fill="#c8cded"/>
        </g>
        <circle id="Ellipse_22595" data-name="Ellipse 22595" cx="18.661" cy="18.661" r="18.661" transform="translate(35.887 31.581)" fill="#559b2d"/>
        <path id="Path_1333876" data-name="Path 1333876" d="M70.339,48.806A18.634,18.634,0,0,0,61.384,32.89,18.644,18.644,0,0,0,44.842,66.159a18.635,18.635,0,0,0,25.5-17.352Z" fill="#6bc13b"/>
        <path id="Path_1333877" data-name="Path 1333877" d="M41.629,53.113l8.613,8.613,15.79-15.79-4.306-4.306L50.242,53.113l-4.306-4.306Z" fill="#f2f2f2"/>
        <path id="Path_1333878" data-name="Path 1333878" d="M14.355,40.194V35.887H8.613v5.742h4.306A1.435,1.435,0,0,0,14.355,40.194Z" fill="#6bc13b"/>
        <path id="Path_1333879" data-name="Path 1333879" d="M14.355,63.161V58.855H8.613V64.6h4.306A1.435,1.435,0,0,0,14.355,63.161Z" fill="#6bc13b"/>
        <path id="Path_1333880" data-name="Path 1333880" d="M90.015,30.566,75.66,16.211a1.435,1.435,0,0,0-1.015-.421h-19.5L41.208,1.856a1.435,1.435,0,0,0-1.015-.421H2.871A1.435,1.435,0,0,0,1.435,2.871V77.516a1.435,1.435,0,0,0,1.435,1.435H35.887V89a1.435,1.435,0,0,0,1.435,1.435H89A1.435,1.435,0,0,0,90.435,89V31.581a1.435,1.435,0,0,0-.42-1.015ZM76.081,20.691l9.454,9.454H76.081ZM54.548,67.468A17.226,17.226,0,1,1,71.774,50.242,17.226,17.226,0,0,1,54.548,67.468ZM41.629,6.336l9.454,9.454H41.629ZM4.306,4.306H38.758V17.226a1.435,1.435,0,0,0,1.435,1.435H53.113V30.218A20.1,20.1,0,0,0,36.418,41.629H21.532V44.5H35.3a19.861,19.861,0,0,0,1.12,14.355H21.532v2.871H38.079A20.223,20.223,0,0,0,40.511,64.6H21.532v2.871H44.25a19.927,19.927,0,0,0,8.863,2.8v5.815H4.306ZM38.758,87.565V78.952h15.79a1.435,1.435,0,0,0,1.435-1.435V70.265a20.074,20.074,0,0,0,0-40.05V18.661H73.21V31.581a1.435,1.435,0,0,0,1.435,1.435H87.565V87.565Z"/>
        <path id="Path_1333881" data-name="Path 1333881" d="M17.226,14.355H8.613A1.435,1.435,0,0,0,7.177,15.79V24.4a1.435,1.435,0,0,0,1.435,1.435h8.613A1.435,1.435,0,0,0,18.661,24.4V15.79A1.435,1.435,0,0,0,17.226,14.355ZM15.79,22.968H10.048V17.226H15.79Z"/>
        <path id="Path_1333882" data-name="Path 1333882" d="M17.226,34.452H8.613a1.435,1.435,0,0,0-1.435,1.435V44.5a1.435,1.435,0,0,0,1.435,1.435h8.613A1.435,1.435,0,0,0,18.661,44.5V35.887A1.435,1.435,0,0,0,17.226,34.452ZM15.79,43.065H10.048V37.323H15.79Z"/>
        <path id="Path_1333883" data-name="Path 1333883" d="M17.226,57.419H8.613a1.435,1.435,0,0,0-1.435,1.435v8.613A1.435,1.435,0,0,0,8.613,68.9h8.613a1.435,1.435,0,0,0,1.435-1.435V58.855A1.435,1.435,0,0,0,17.226,57.419ZM15.79,66.032H10.048V60.29H15.79Z"/>
        <path id="Path_1333884" data-name="Path 1333884" d="M21.532,15.79H35.887v2.871H21.532Z"/>
        <path id="Path_1333885" data-name="Path 1333885" d="M21.532,21.532h28.71V24.4H21.532Z"/>
        <path id="Path_1333886" data-name="Path 1333886" d="M21.532,35.887H35.887v2.871H21.532Z"/>
        <path id="Path_1333887" data-name="Path 1333887" d="M67.047,44.921l-4.306-4.306a1.435,1.435,0,0,0-2.03,0L50.242,51.083,46.95,47.792a1.435,1.435,0,0,0-2.03,0L40.614,52.1a1.435,1.435,0,0,0,0,2.03l8.613,8.613a1.435,1.435,0,0,0,2.03,0l15.79-15.79a1.435,1.435,0,0,0,0-2.03ZM50.242,59.7l-6.583-6.583,2.277-2.277,3.292,3.292a1.435,1.435,0,0,0,2.03,0L61.726,43.659,64,45.935Z"/>
      </g>
    </g>
  </g>
</svg>
