<svg xmlns="http://www.w3.org/2000/svg" xmlns:xlink="http://www.w3.org/1999/xlink" width="113.842" height="101.604" viewBox="0 0 113.842 101.604">
  <defs>
    <clipPath id="clip-path">
      <rect id="Rectangle_447908" data-name="Rectangle 447908" width="92" height="89" transform="translate(806.051 2698)" fill="#fff" stroke="#707070" stroke-width="1"/>
    </clipPath>
  </defs>
  <g id="Group_1212429" data-name="Group 1212429" transform="translate(-792.781 -2693.272)">
    <g id="Group_1211836" data-name="Group 1211836" transform="translate(792.781 2693.272)">
      <ellipse id="Ellipse_22502" data-name="Ellipse 22502" cx="28.658" cy="28.658" rx="28.658" ry="28.658" transform="translate(56.527 44.289)" fill="#f99f1a"/>
      <ellipse id="Ellipse_22503" data-name="Ellipse 22503" cx="20.842" cy="20.842" rx="20.842" ry="20.842" fill="#f99f1a"/>
    </g>
    <g id="Mask_Group_1099782" data-name="Mask Group 1099782" clip-path="url(#clip-path)">
      <g id="interpretation_17527795" transform="translate(807.553 2698.002)">
        <g id="Group_1213922" data-name="Group 1213922">
          <path id="Path_1333900" data-name="Path 1333900" d="M30.526,1.391h24a1.3,1.3,0,0,1,.953.4l9.942,9.942a1.289,1.289,0,0,1,.4.947V47.612a1.349,1.349,0,0,1-1.349,1.344H30.524a1.349,1.349,0,0,1-1.349-1.344V2.739a1.356,1.356,0,0,1,1.351-1.349Z" fill="#e2e7f0" fill-rule="evenodd"/>
          <path id="Path_1333901" data-name="Path 1333901" d="M55.088,1.51a1.279,1.279,0,0,1,.393.278l9.942,9.942a1.374,1.374,0,0,1,.278.393H55.09V1.51Z" fill="#b7bbc2" fill-rule="evenodd"/>
          <path id="Path_1333902" data-name="Path 1333902" d="M64.845,84.251C57.723,67.021,68.714,64.834,72.22,53.6a19.978,19.978,0,0,0,.1-11.938A1.956,1.956,0,0,0,70.407,40.2H24.59a1.946,1.946,0,0,0-1.879,1.358,20.774,20.774,0,0,0-.961,4.653c-.382,4.232,1.2,6.365-4.931,14.237-3.017,4.877,1.53,4.912,3.659,4.973-2.2,1.889-.153,3.549,1.081,3.907-2.433.994-1.721,3.223.45,3.965-3.572,8.388,2.741,8.694,11.646,6.881l1.354,5.576A2.4,2.4,0,0,0,37.366,87.6H62.607a2.422,2.422,0,0,0,2.237-3.349Z" fill="#fbbd80" fill-rule="evenodd"/>
          <path id="Path_1333903" data-name="Path 1333903" d="M49.769,17.684A8.786,8.786,0,1,1,39.01,23.9a8.787,8.787,0,0,1,10.759-6.212Z" fill="#70da40" fill-rule="evenodd"/>
        </g>
        <g id="Group_1213923" data-name="Group 1213923">
          <path id="Path_1333904" data-name="Path 1333904" d="M34.293,6.633a1.392,1.392,0,0,1,1.392-1.392H48.594a1.392,1.392,0,1,1,0,2.785H35.685a1.392,1.392,0,0,1-1.392-1.392Zm15.692,5.5a1.392,1.392,0,0,0-1.392-1.392H35.683a1.392,1.392,0,0,0,0,2.785H48.593A1.392,1.392,0,0,0,49.985,12.131Zm.9,10.368L46.495,26.89l-2.371-2.371a1.392,1.392,0,1,0-1.968,1.969l3.355,3.355a1.389,1.389,0,0,0,1.968,0l5.376-5.376A1.392,1.392,0,1,0,50.885,22.5Zm6.452,6.306a10.18,10.18,0,1,1-7.2-12.464A10.2,10.2,0,0,1,57.337,28.805ZM49.42,19.028a7.4,7.4,0,1,0,5.228,9.058A7.415,7.415,0,0,0,49.42,19.028ZM73.558,54.012a32.024,32.024,0,0,1-5.126,9.331c-3.8,5.294-6.8,9.475-2.293,20.38A3.817,3.817,0,0,1,62.611,89H37.369a3.8,3.8,0,0,1-3.708-2.918L32.62,81.8c-6.616,1.212-10.238.786-12-1.375-1.227-1.5-1.345-3.626-.355-6.464a3.553,3.553,0,0,1-1.622-2.752,2.882,2.882,0,0,1,.521-1.74,3.506,3.506,0,0,1-.975-1.705,2.946,2.946,0,0,1-.026-1.112A4.314,4.314,0,0,1,14.8,64.7c-.7-1.3-.428-2.931.838-4.976.026-.043.056-.083.085-.123,4.592-5.894,4.582-8.143,4.571-10.992a25.127,25.127,0,0,1,.078-2.519A22.153,22.153,0,0,1,21.4,41.127a3.358,3.358,0,0,1,3.2-2.315h3.195V2.739A2.741,2.741,0,0,1,30.531,0h24A2.683,2.683,0,0,1,56.47.8l9.942,9.942a2.682,2.682,0,0,1,.8,1.935V38.808h3.195a3.347,3.347,0,0,1,3.254,2.479,21.534,21.534,0,0,1-.1,12.725ZM56.484,10.73h5.979L56.484,4.75ZM30.576,38.808H64.431v-25.3H55.092A1.392,1.392,0,0,1,53.7,12.12V2.783H30.576Zm40.4,3.216a.571.571,0,0,0-.568-.431H24.6a.554.554,0,0,0-.554.4,19.41,19.41,0,0,0-.9,4.344c-.073.8-.07,1.538-.066,2.256.012,3.108.024,6.044-5.11,12.652-.78,1.281-.819,1.942-.716,2.131.306.568,2.439.631,3.139.652l.134,0a1.392,1.392,0,0,1,.867,2.446c-.368.318-.508.575-.483.69a1.7,1.7,0,0,0,1.038.826,1.391,1.391,0,0,1,.143,2.625c-.462.189-.666.41-.664.506.005.177.315.608,1.038.855a1.393,1.393,0,0,1,.831,1.865c-.7,1.636-1.352,3.8-.518,4.822,1.071,1.312,4.637,1.363,10.6.151a1.391,1.391,0,0,1,1.629,1.036l1.356,5.573a1,1,0,0,0,1,.789H62.609a1.032,1.032,0,0,0,.956-1.427c-2.308-5.585-2.971-10.052-2.082-14.055.8-3.591,2.774-6.346,4.686-9.011a29.4,29.4,0,0,0,4.73-8.536,18.642,18.642,0,0,0,.08-11.163Z"/>
        </g>
      </g>
    </g>
  </g>
</svg>
