<svg xmlns="http://www.w3.org/2000/svg" xmlns:xlink="http://www.w3.org/1999/xlink" width="463" height="289" viewBox="0 0 463 289">
  <defs>
    <clipPath id="clip-path">
      <rect id="Rectangle_448605" data-name="Rectangle 448605" width="463" height="289" transform="translate(8517 -10533)" fill="#fff" stroke="#707070" stroke-width="1"/>
    </clipPath>
  </defs>
  <g id="Mask_Group_1099708" data-name="Mask Group 1099708" transform="translate(-8517 10533)" clip-path="url(#clip-path)">
    <g id="Figura_5" data-name="Figura 5" transform="translate(8206.96 -12834.276)">
      <rect id="Rectangle_448847" data-name="Rectangle 448847" width="439.666" height="289" transform="translate(321.707 2301.276)" fill="#f3f9ff"/>
      <g id="Group_1213390" data-name="Group 1213390" transform="translate(-2.145 2.903)">
        <rect id="Rectangle_448848" data-name="Rectangle 448848" width="82.188" height="31.635" transform="translate(423.581 2368.612)" fill="#fff"/>
        <path id="Path_1333096" data-name="Path 1333096" d="M.536.536V31.1H81.651V.536H.536M0,0H82.188V31.635H0Z" transform="translate(423.581 2368.612)" fill="#12263f"/>
        <rect id="Rectangle_448849" data-name="Rectangle 448849" width="82.188" height="31.635" transform="translate(423.581 2432.417)" fill="#fff"/>
        <path id="Path_1333097" data-name="Path 1333097" d="M.536.536V31.1H81.651V.536H.536M0,0H82.188V31.635H0Z" transform="translate(423.581 2432.417)" fill="#12263f"/>
        <rect id="Rectangle_448850" data-name="Rectangle 448850" width="82.188" height="32.171" transform="translate(581.753 2400.247)" fill="#fff"/>
        <path id="Path_1333098" data-name="Path 1333098" d="M.536.536v31.1H81.651V.536H.536M0,0H82.188V32.171H0Z" transform="translate(581.753 2400.247)" fill="#12263f"/>
        <rect id="Rectangle_448851" data-name="Rectangle 448851" width="91.048" height="31.635" transform="translate(572.102 2485.499)" fill="#fff"/>
        <path id="Path_1333099" data-name="Path 1333099" d="M.536.536V31.1H90.512V.536H.536M0,0H91.048V31.635H0Z" transform="translate(572.102 2485.499)" fill="#12263f"/>
        <rect id="Rectangle_448852" data-name="Rectangle 448852" width="82.188" height="31.635" transform="translate(423.581 2485.499)" fill="#fff"/>
        <path id="Path_1333100" data-name="Path 1333100" d="M.536.536V31.1H81.651V.536H.536M0,0H82.188V31.635H0Z" transform="translate(423.581 2485.499)" fill="#12263f"/>
        <path id="Path_1333101" data-name="Path 1333101" d="M13.631,7.515a.643.643,0,0,0-.251-.545,3.3,3.3,0,0,0-.9-.4,6.414,6.414,0,0,1-1.035-.417A1.691,1.691,0,0,1,10.4,4.637a1.473,1.473,0,0,1,.278-.884,1.817,1.817,0,0,1,.8-.605,3.011,3.011,0,0,1,1.174-.216,2.741,2.741,0,0,1,1.165.236,1.854,1.854,0,0,1,.794.668,1.748,1.748,0,0,1,.283.98H13.636a.822.822,0,0,0-.264-.651,1.085,1.085,0,0,0-.742-.233,1.159,1.159,0,0,0-.716.2.614.614,0,0,0-.256.513.59.59,0,0,0,.3.5,3.384,3.384,0,0,0,.882.375,3.81,3.81,0,0,1,1.562.8,1.594,1.594,0,0,1,.49,1.191,1.468,1.468,0,0,1-.6,1.242,2.622,2.622,0,0,1-1.613.45A3.114,3.114,0,0,1,11.4,8.941a2.028,2.028,0,0,1-.882-.706,1.807,1.807,0,0,1-.3-1.039h1.261q0,1.01,1.206,1.01a1.174,1.174,0,0,0,.7-.182A.593.593,0,0,0,13.631,7.515Zm4.746,1.139a1.518,1.518,0,0,1-1.24.545,1.432,1.432,0,0,1-1.112-.419,1.788,1.788,0,0,1-.391-1.227V4.583h1.211V7.514q0,.709.643.709a.874.874,0,0,0,.846-.429V4.583H19.55V9.115H18.411Zm4.541-.792a.39.39,0,0,0-.22-.35,2.5,2.5,0,0,0-.706-.228q-1.618-.339-1.618-1.374a1.246,1.246,0,0,1,.5-1.007,2.019,2.019,0,0,1,1.309-.4,2.173,2.173,0,0,1,1.38.406,1.28,1.28,0,0,1,.517,1.056h-1.21a.585.585,0,0,0-.167-.429.709.709,0,0,0-.524-.17.724.724,0,0,0-.473.138.436.436,0,0,0-.167.352.375.375,0,0,0,.19.324,1.961,1.961,0,0,0,.643.214,5.255,5.255,0,0,1,.762.2A1.253,1.253,0,0,1,24.1,7.813a1.18,1.18,0,0,1-.532,1A2.3,2.3,0,0,1,22.19,9.2,2.4,2.4,0,0,1,21.178,9a1.7,1.7,0,0,1-.7-.558,1.294,1.294,0,0,1-.251-.765h1.148a.632.632,0,0,0,.239.494.947.947,0,0,0,.595.172.877.877,0,0,0,.525-.132.411.411,0,0,0,.181-.345ZM27.5,9.115a1.344,1.344,0,0,1-.122-.406,1.465,1.465,0,0,1-1.144.49,1.609,1.609,0,0,1-1.1-.386,1.24,1.24,0,0,1-.438-.972,1.281,1.281,0,0,1,.536-1.106,2.635,2.635,0,0,1,1.544-.39h.555v-.26a.747.747,0,0,0-.161-.5.634.634,0,0,0-.509-.189.721.721,0,0,0-.48.146.5.5,0,0,0-.174.4H24.8a1.216,1.216,0,0,1,.244-.729,1.609,1.609,0,0,1,.687-.525,2.5,2.5,0,0,1,1-.19,1.978,1.978,0,0,1,1.33.421A1.473,1.473,0,0,1,28.545,6.1V8.068a2.167,2.167,0,0,0,.18.976v.071Zm-1-.842a1.043,1.043,0,0,0,.494-.12.784.784,0,0,0,.335-.322V7.054h-.453q-.912,0-.965.628l0,.071a.483.483,0,0,0,.161.375.618.618,0,0,0,.431.144Zm4.088-3.691.038.524a1.582,1.582,0,0,1,1.3-.607A1.315,1.315,0,0,1,33,4.922a1.974,1.974,0,0,1,.36,1.265V9.115H32.15v-2.9a.786.786,0,0,0-.167-.559.751.751,0,0,0-.557-.174.833.833,0,0,0-.767.436v3.2H29.449V4.583Zm6.317,4.532a1.344,1.344,0,0,1-.122-.406,1.465,1.465,0,0,1-1.144.49,1.609,1.609,0,0,1-1.1-.386,1.24,1.24,0,0,1-.438-.972,1.281,1.281,0,0,1,.536-1.106,2.635,2.635,0,0,1,1.544-.39h.557v-.26a.747.747,0,0,0-.161-.5.634.634,0,0,0-.509-.189.721.721,0,0,0-.48.146.5.5,0,0,0-.174.4H34.2a1.216,1.216,0,0,1,.243-.729,1.609,1.609,0,0,1,.687-.525,2.5,2.5,0,0,1,1-.19,1.978,1.978,0,0,1,1.33.421A1.473,1.473,0,0,1,37.947,6.1V8.068a2.167,2.167,0,0,0,.18.976v.071Zm-1-.842a1.043,1.043,0,0,0,.494-.12.784.784,0,0,0,.335-.322V7.054h-.453q-.911,0-.965.628l0,.071a.483.483,0,0,0,.161.375.618.618,0,0,0,.431.144Zm3.033.247a.61.61,0,0,1,.195-.469.757.757,0,0,1,.98,0,.61.61,0,0,1,.195.469.6.6,0,0,1-.192.463.769.769,0,0,1-.984,0,.6.6,0,0,1-.192-.463Zm0-3.432a.61.61,0,0,1,.195-.469.757.757,0,0,1,.98,0,.61.61,0,0,1,.195.469.6.6,0,0,1-.192.463.769.769,0,0,1-.984,0,.6.6,0,0,1-.192-.462Zm7.125,4.026a1.344,1.344,0,0,1-.122-.406A1.465,1.465,0,0,1,44.8,9.2a1.609,1.609,0,0,1-1.1-.386,1.24,1.24,0,0,1-.438-.972,1.281,1.281,0,0,1,.536-1.106,2.635,2.635,0,0,1,1.544-.39h.557v-.26a.747.747,0,0,0-.161-.5.634.634,0,0,0-.509-.189.721.721,0,0,0-.48.146.5.5,0,0,0-.174.4H43.356a1.216,1.216,0,0,1,.243-.729,1.609,1.609,0,0,1,.687-.525,2.5,2.5,0,0,1,1-.19,1.978,1.978,0,0,1,1.33.421A1.473,1.473,0,0,1,47.1,6.1V8.068a2.167,2.167,0,0,0,.18.976v.071Zm-1-.842a1.043,1.043,0,0,0,.494-.12.784.784,0,0,0,.335-.322V7.054h-.453q-.911,0-.965.628l0,.071a.483.483,0,0,0,.161.375A.618.618,0,0,0,45.061,8.273Zm4.251.842H48.1V2.681h1.217Zm3.711-.461a1.518,1.518,0,0,1-1.24.545,1.432,1.432,0,0,1-1.112-.419,1.788,1.788,0,0,1-.391-1.227V4.583h1.211V7.514q0,.709.643.709a.874.874,0,0,0,.846-.429V4.583H54.2V9.115H53.058Zm3.221-4.072.038.507a1.593,1.593,0,0,1,1.3-.59,1.209,1.209,0,0,1,1.2.691A1.555,1.555,0,0,1,60.149,4.5a1.352,1.352,0,0,1,1.1.429,1.974,1.974,0,0,1,.36,1.292V9.115H60.392V6.224a.863.863,0,0,0-.151-.564.668.668,0,0,0-.532-.178.755.755,0,0,0-.754.52l0,3.11H57.746V6.229a.853.853,0,0,0-.155-.569.675.675,0,0,0-.528-.176.784.784,0,0,0-.746.429v3.2H55.107V4.583Zm7.406,0,.038.524a1.582,1.582,0,0,1,1.3-.607,1.315,1.315,0,0,1,1.072.423,1.974,1.974,0,0,1,.36,1.265V9.115H65.214v-2.9a.786.786,0,0,0-.167-.559.751.751,0,0,0-.557-.174.833.833,0,0,0-.767.436v3.2H62.512V4.583Zm3.5,2.224a2.688,2.688,0,0,1,.26-1.2,1.9,1.9,0,0,1,.748-.817A2.182,2.182,0,0,1,69.294,4.5a2.064,2.064,0,0,1,1.5.561,2.252,2.252,0,0,1,.647,1.525l.009.31a2.369,2.369,0,0,1-.582,1.673,2.257,2.257,0,0,1-3.127,0,2.413,2.413,0,0,1-.584-1.709Zm1.211.086a1.694,1.694,0,0,0,.243.988.873.873,0,0,0,1.382,0,1.853,1.853,0,0,0,.247-1.08,1.677,1.677,0,0,0-.247-.982.8.8,0,0,0-.7-.348.79.79,0,0,0-.687.346,1.885,1.885,0,0,0-.242,1.072Z" transform="translate(423.581 2379.336)" fill="#12263f"/>
        <path id="Path_1333102" data-name="Path 1333102" d="M4.684,5.576H2.372V7.467H5.058v.575H1.668V2.706H5.021v.575H2.372V5H4.684ZM8.137,6.991a.5.5,0,0,0-.207-.429A1.994,1.994,0,0,0,7.207,6.3a3.414,3.414,0,0,1-.817-.264,1.163,1.163,0,0,1-.447-.367A.877.877,0,0,1,5.8,5.164a1.029,1.029,0,0,1,.412-.821,1.609,1.609,0,0,1,1.054-.337,1.657,1.657,0,0,1,1.094.348,1.106,1.106,0,0,1,.42.891H8.1a.612.612,0,0,0-.236-.483.886.886,0,0,0-.6-.2.927.927,0,0,0-.579.161.508.508,0,0,0-.209.421.411.411,0,0,0,.194.37,2.39,2.39,0,0,0,.7.238,3.657,3.657,0,0,1,.823.271,1.2,1.2,0,0,1,.468.38.933.933,0,0,1,.152.54,1.015,1.015,0,0,1-.425.852,1.783,1.783,0,0,1-1.1.322,2,2,0,0,1-.843-.168,1.371,1.371,0,0,1-.574-.471,1.135,1.135,0,0,1-.207-.654h.678a.7.7,0,0,0,.273.54,1.059,1.059,0,0,0,.672.2A1.093,1.093,0,0,0,7.9,7.407a.479.479,0,0,0,.233-.416Zm2.48-3.874v.958h.74V4.6h-.74V7.062a.551.551,0,0,0,.1.358.417.417,0,0,0,.337.119,1.642,1.642,0,0,0,.322-.044v.548a1.977,1.977,0,0,1-.521.073.844.844,0,0,1-.685-.275,1.18,1.18,0,0,1-.231-.781V4.6h-.72V4.075H9.94V3.117ZM14.6,7.651a1.44,1.44,0,0,1-1.162.465,1.233,1.233,0,0,1-.965-.368,1.6,1.6,0,0,1-.335-1.091V4.075h.68V6.637q0,.9.733.9a1.015,1.015,0,0,0,1.034-.579V4.075h.678V8.043h-.643Zm1.525-1.624a2.323,2.323,0,0,1,.434-1.47,1.472,1.472,0,0,1,2.236-.079V2.413h.678v5.63h-.624l-.033-.425a1.381,1.381,0,0,1-1.132.5,1.354,1.354,0,0,1-1.126-.565,2.35,2.35,0,0,1-.434-1.473ZM16.8,6.1a1.759,1.759,0,0,0,.279,1.056.9.9,0,0,0,.77.381.989.989,0,0,0,.942-.579V5.139a1,1,0,0,0-.936-.56.9.9,0,0,0-.777.385A1.937,1.937,0,0,0,16.8,6.1Zm4.458,1.938h-.678V4.075h.678Zm-.733-5.018a.4.4,0,0,1,.1-.279.379.379,0,0,1,.3-.114.384.384,0,0,1,.3.114.4.4,0,0,1,.1.279.387.387,0,0,1-.1.275.391.391,0,0,1-.3.11.385.385,0,0,1-.3-.11A.391.391,0,0,1,20.525,3.025Zm4.266,5.018a1.425,1.425,0,0,1-.1-.418,1.513,1.513,0,0,1-1.129.491,1.4,1.4,0,0,1-.962-.332,1.072,1.072,0,0,1-.375-.841,1.121,1.121,0,0,1,.471-.962,2.221,2.221,0,0,1,1.325-.343h.659V5.327a.761.761,0,0,0-.214-.566.854.854,0,0,0-.627-.211.989.989,0,0,0-.609.183.54.54,0,0,0-.246.443h-.68a.936.936,0,0,1,.209-.574,1.439,1.439,0,0,1,.572-.438A1.924,1.924,0,0,1,23.885,4a1.568,1.568,0,0,1,1.072.343,1.236,1.236,0,0,1,.4.944V7.113a2.232,2.232,0,0,0,.139.869v.061Zm-1.126-.517a1.192,1.192,0,0,0,.6-.165,1,1,0,0,0,.414-.429V6.118h-.531q-1.246,0-1.246.729a.617.617,0,0,0,.214.5.817.817,0,0,0,.545.18Zm3.4-3.451.022.5A1.448,1.448,0,0,1,28.277,4q1.257,0,1.268,1.419V8.043h-.678V5.418a.912.912,0,0,0-.2-.634.786.786,0,0,0-.6-.205.979.979,0,0,0-.579.176,1.2,1.2,0,0,0-.389.462V8.043h-.678V4.075Zm4.42-.96v.96h.74V4.6h-.74V7.062a.551.551,0,0,0,.1.358.417.417,0,0,0,.337.119,1.642,1.642,0,0,0,.322-.044v.548a1.977,1.977,0,0,1-.521.073.844.844,0,0,1-.685-.275,1.18,1.18,0,0,1-.231-.781V4.6h-.722V4.075h.722V3.117Zm3.178,5a1.733,1.733,0,0,1-1.312-.53,1.966,1.966,0,0,1-.506-1.417V6.043a2.38,2.38,0,0,1,.225-1.054,1.759,1.759,0,0,1,.631-.724A1.585,1.585,0,0,1,34.583,4a1.485,1.485,0,0,1,1.2.509,2.206,2.206,0,0,1,.429,1.459v.282H33.526a1.41,1.41,0,0,0,.343.947,1.077,1.077,0,0,0,.834.361,1.18,1.18,0,0,0,.609-.146,1.529,1.529,0,0,0,.436-.389l.414.322a1.665,1.665,0,0,1-1.495.767Zm-.083-3.553a.9.9,0,0,0-.689.3,1.452,1.452,0,0,0-.345.838h1.987V5.643a1.292,1.292,0,0,0-.279-.8.851.851,0,0,0-.674-.281Z" transform="translate(509.369 2487.33)" fill="#12263f"/>
        <path id="Path_1333103" data-name="Path 1333103" d="M4.514,2.706h.708V6.485a1.565,1.565,0,0,1-.46,1.2,1.716,1.716,0,0,1-1.226.433A1.765,1.765,0,0,1,2.3,7.709a1.469,1.469,0,0,1-.443-1.14h.7a.979.979,0,0,0,.251.715.973.973,0,0,0,.728.257.944.944,0,0,0,.706-.275,1.065,1.065,0,0,0,.273-.77ZM7.96,8.116a1.733,1.733,0,0,1-1.312-.53A1.966,1.966,0,0,1,6.142,6.17V6.045a2.38,2.38,0,0,1,.225-1.054A1.759,1.759,0,0,1,7,4.266,1.585,1.585,0,0,1,7.875,4a1.485,1.485,0,0,1,1.2.509,2.206,2.206,0,0,1,.429,1.459v.282H6.82a1.41,1.41,0,0,0,.343.947A1.077,1.077,0,0,0,8,7.562,1.18,1.18,0,0,0,8.6,7.416a1.529,1.529,0,0,0,.436-.389l.414.322a1.665,1.665,0,0,1-1.495.767ZM7.875,4.561a.9.9,0,0,0-.689.3,1.452,1.452,0,0,0-.345.838H8.828V5.643a1.292,1.292,0,0,0-.279-.8A.851.851,0,0,0,7.875,4.561Zm2.749,3.482V4.6H10V4.075h.627v-.4a1.351,1.351,0,0,1,.341-.986,1.287,1.287,0,0,1,.965-.348A1.79,1.79,0,0,1,12.4,2.4l-.036.546a1.947,1.947,0,0,0-.367-.033.662.662,0,0,0-.509.193.783.783,0,0,0-.18.553v.418h.847V4.6H11.3V8.043Zm3.918.073a1.733,1.733,0,0,1-1.312-.53,1.966,1.966,0,0,1-.506-1.417V6.045a2.38,2.38,0,0,1,.225-1.054,1.759,1.759,0,0,1,.631-.726A1.585,1.585,0,0,1,14.459,4a1.485,1.485,0,0,1,1.2.509,2.206,2.206,0,0,1,.429,1.459v.282H13.4a1.41,1.41,0,0,0,.343.947,1.077,1.077,0,0,0,.834.361,1.18,1.18,0,0,0,.609-.146,1.529,1.529,0,0,0,.436-.389l.414.322A1.665,1.665,0,0,1,14.543,8.116Zm-.084-3.555a.9.9,0,0,0-.689.3,1.452,1.452,0,0,0-.345.838h1.987V5.643a1.292,1.292,0,0,0-.279-.8.851.851,0,0,0-.675-.281Zm4.109,1.466A2.323,2.323,0,0,1,19,4.558a1.472,1.472,0,0,1,2.236-.079V2.413h.678v5.63h-.623l-.033-.425a1.381,1.381,0,0,1-1.132.5A1.354,1.354,0,0,1,19,7.552a2.35,2.35,0,0,1-.434-1.473Zm.678.077a1.759,1.759,0,0,0,.279,1.056.9.9,0,0,0,.77.381.989.989,0,0,0,.942-.579V5.139a1,1,0,0,0-.936-.56.9.9,0,0,0-.777.385,1.937,1.937,0,0,0-.279,1.14Zm5.365,2.012a1.733,1.733,0,0,1-1.312-.53,1.966,1.966,0,0,1-.506-1.417V6.045a2.38,2.38,0,0,1,.225-1.054,1.759,1.759,0,0,1,.631-.726A1.585,1.585,0,0,1,24.526,4a1.485,1.485,0,0,1,1.2.509,2.206,2.206,0,0,1,.429,1.459v.282H23.471a1.41,1.41,0,0,0,.343.947,1.077,1.077,0,0,0,.834.361,1.18,1.18,0,0,0,.609-.146,1.529,1.529,0,0,0,.436-.389l.414.322A1.665,1.665,0,0,1,24.611,8.116Zm-.084-3.555a.9.9,0,0,0-.689.3,1.452,1.452,0,0,0-.345.838h1.987V5.643a1.292,1.292,0,0,0-.279-.8.851.851,0,0,0-.673-.284Zm4.112,1.466a2.331,2.331,0,0,1,.429-1.475,1.478,1.478,0,0,1,2.269-.035l.033-.44h.619V7.948a1.613,1.613,0,0,1-.456,1.213,1.684,1.684,0,0,1-1.226.443,2.037,2.037,0,0,1-.839-.183,1.448,1.448,0,0,1-.627-.5l.352-.407a1.326,1.326,0,0,0,1.066.536,1.039,1.039,0,0,0,.772-.279,1.065,1.065,0,0,0,.277-.78V7.648a1.394,1.394,0,0,1-1.11.469,1.354,1.354,0,0,1-1.126-.561,2.451,2.451,0,0,1-.432-1.53Zm.681.077A1.778,1.778,0,0,0,29.6,7.157a.893.893,0,0,0,.77.383.993.993,0,0,0,.942-.583V5.147a1,1,0,0,0-.935-.568.9.9,0,0,0-.773.385,1.937,1.937,0,0,0-.279,1.14Zm5.608-1.419a2.032,2.032,0,0,0-.334-.026.894.894,0,0,0-.905.568V8.043h-.678V4.075h.66l.011.458A1.056,1.056,0,0,1,34.629,4a.693.693,0,0,1,.3.054ZM38,7.65a1.44,1.44,0,0,1-1.162.465,1.233,1.233,0,0,1-.965-.368,1.6,1.6,0,0,1-.335-1.091V4.075h.678V6.637q0,.9.733.9a1.015,1.015,0,0,0,1.034-.579V4.075h.675V8.043h-.643ZM43.041,6.1a2.375,2.375,0,0,1-.414,1.457,1.328,1.328,0,0,1-1.122.553,1.455,1.455,0,0,1-1.136-.458v1.91H39.69V4.075h.619l.033.44A1.4,1.4,0,0,1,41.493,4a1.352,1.352,0,0,1,1.131.536,2.4,2.4,0,0,1,.416,1.5Zm-.678-.077a1.752,1.752,0,0,0-.286-1.059.921.921,0,0,0-.784-.389,1,1,0,0,0-.924.546V7.019a1,1,0,0,0,.931.541.917.917,0,0,0,.775-.387,1.913,1.913,0,0,0,.287-1.147Zm1.36,0a2.342,2.342,0,0,1,.229-1.048,1.709,1.709,0,0,1,.638-.718A1.736,1.736,0,0,1,45.522,4a1.672,1.672,0,0,1,1.31.561,2.158,2.158,0,0,1,.5,1.492V6.1a2.363,2.363,0,0,1-.222,1.039,1.684,1.684,0,0,1-.634.716,1.756,1.756,0,0,1-.947.257,1.668,1.668,0,0,1-1.307-.561,2.145,2.145,0,0,1-.5-1.485Zm.681.08a1.7,1.7,0,0,0,.306,1.059,1.037,1.037,0,0,0,1.64-.005,1.855,1.855,0,0,0,.3-1.135,1.694,1.694,0,0,0-.31-1.057.984.984,0,0,0-.822-.4.974.974,0,0,0-.81.4A1.842,1.842,0,0,0,44.4,6.1Z" transform="translate(509.369 2506.633)" fill="#12263f"/>
        <path id="Path_1333104" data-name="Path 1333104" d="M4.684,5.576H2.372V7.467H5.058v.575H1.668V2.706H5.021v.575H2.372V5H4.684ZM8.137,6.991a.5.5,0,0,0-.207-.429A1.994,1.994,0,0,0,7.207,6.3a3.414,3.414,0,0,1-.817-.264,1.163,1.163,0,0,1-.447-.367A.877.877,0,0,1,5.8,5.164a1.029,1.029,0,0,1,.412-.821,1.609,1.609,0,0,1,1.054-.337,1.657,1.657,0,0,1,1.094.348,1.106,1.106,0,0,1,.42.891H8.1a.612.612,0,0,0-.236-.483.886.886,0,0,0-.6-.2.927.927,0,0,0-.579.161.508.508,0,0,0-.209.421.411.411,0,0,0,.194.37,2.39,2.39,0,0,0,.7.238,3.657,3.657,0,0,1,.823.271,1.2,1.2,0,0,1,.468.38.933.933,0,0,1,.152.54,1.015,1.015,0,0,1-.425.852,1.783,1.783,0,0,1-1.1.322,2,2,0,0,1-.843-.168,1.371,1.371,0,0,1-.574-.471,1.135,1.135,0,0,1-.207-.654h.678a.7.7,0,0,0,.273.54,1.059,1.059,0,0,0,.672.2A1.093,1.093,0,0,0,7.9,7.407a.479.479,0,0,0,.233-.416Zm2.48-3.874v.958h.74V4.6h-.74V7.062a.551.551,0,0,0,.1.358.417.417,0,0,0,.337.119,1.642,1.642,0,0,0,.322-.044v.548a1.977,1.977,0,0,1-.521.073.844.844,0,0,1-.685-.275,1.18,1.18,0,0,1-.231-.781V4.6h-.72V4.075H9.94V3.117ZM14.6,7.651a1.44,1.44,0,0,1-1.162.465,1.233,1.233,0,0,1-.965-.368,1.6,1.6,0,0,1-.335-1.091V4.075h.68V6.637q0,.9.733.9a1.015,1.015,0,0,0,1.034-.579V4.075h.678V8.043h-.643Zm1.525-1.624a2.323,2.323,0,0,1,.434-1.47,1.472,1.472,0,0,1,2.236-.079V2.413h.678v5.63h-.624l-.033-.425a1.381,1.381,0,0,1-1.132.5,1.354,1.354,0,0,1-1.126-.565,2.35,2.35,0,0,1-.434-1.473ZM16.8,6.1a1.759,1.759,0,0,0,.279,1.056.9.9,0,0,0,.77.381.989.989,0,0,0,.942-.579V5.139a1,1,0,0,0-.936-.56.9.9,0,0,0-.777.385A1.937,1.937,0,0,0,16.8,6.1Zm4.458,1.938h-.678V4.075h.678Zm-.733-5.018a.4.4,0,0,1,.1-.279.379.379,0,0,1,.3-.114.384.384,0,0,1,.3.114.4.4,0,0,1,.1.279.387.387,0,0,1-.1.275.391.391,0,0,1-.3.11.385.385,0,0,1-.3-.11A.391.391,0,0,1,20.525,3.025Zm4.266,5.018a1.425,1.425,0,0,1-.1-.418,1.513,1.513,0,0,1-1.129.491,1.4,1.4,0,0,1-.962-.332,1.072,1.072,0,0,1-.375-.841,1.121,1.121,0,0,1,.471-.962,2.221,2.221,0,0,1,1.325-.343h.659V5.327a.761.761,0,0,0-.214-.566.854.854,0,0,0-.627-.211.989.989,0,0,0-.609.183.54.54,0,0,0-.246.443h-.68a.936.936,0,0,1,.209-.574,1.439,1.439,0,0,1,.572-.438A1.924,1.924,0,0,1,23.885,4a1.568,1.568,0,0,1,1.072.343,1.236,1.236,0,0,1,.4.944V7.113a2.232,2.232,0,0,0,.139.869v.061Zm-1.126-.517a1.192,1.192,0,0,0,.6-.165,1,1,0,0,0,.414-.429V6.118h-.531q-1.246,0-1.246.729a.617.617,0,0,0,.214.5.817.817,0,0,0,.545.18Zm3.4-3.451.022.5A1.448,1.448,0,0,1,28.277,4q1.257,0,1.268,1.419V8.043h-.678V5.418a.912.912,0,0,0-.2-.634.786.786,0,0,0-.6-.205.979.979,0,0,0-.579.176,1.2,1.2,0,0,0-.389.462V8.043h-.678V4.075Zm4.42-.96v.96h.74V4.6h-.74V7.062a.551.551,0,0,0,.1.358.417.417,0,0,0,.337.119,1.642,1.642,0,0,0,.322-.044v.548a1.977,1.977,0,0,1-.521.073.844.844,0,0,1-.685-.275,1.18,1.18,0,0,1-.231-.781V4.6h-.722V4.075h.722V3.117Zm3.178,5a1.733,1.733,0,0,1-1.312-.53,1.966,1.966,0,0,1-.506-1.417V6.043a2.38,2.38,0,0,1,.225-1.054,1.759,1.759,0,0,1,.631-.724A1.585,1.585,0,0,1,34.583,4a1.485,1.485,0,0,1,1.2.509,2.206,2.206,0,0,1,.429,1.459v.282H33.526a1.41,1.41,0,0,0,.343.947,1.077,1.077,0,0,0,.834.361,1.18,1.18,0,0,0,.609-.146,1.529,1.529,0,0,0,.436-.389l.414.322a1.665,1.665,0,0,1-1.495.767Zm-.083-3.553a.9.9,0,0,0-.689.3,1.452,1.452,0,0,0-.345.838h1.987V5.643a1.292,1.292,0,0,0-.279-.8.851.851,0,0,0-.674-.281Z" transform="translate(509.369 2449.261)" fill="#12263f"/>
        <path id="Path_1333105" data-name="Path 1333105" d="M4.684,5.576H2.372V7.467H5.058v.575H1.668V2.706H5.021v.575H2.372V5H4.684ZM8.137,6.991a.5.5,0,0,0-.207-.429A1.994,1.994,0,0,0,7.207,6.3a3.414,3.414,0,0,1-.817-.264,1.163,1.163,0,0,1-.447-.367A.877.877,0,0,1,5.8,5.164a1.029,1.029,0,0,1,.412-.821,1.609,1.609,0,0,1,1.054-.337,1.657,1.657,0,0,1,1.094.348,1.106,1.106,0,0,1,.42.891H8.1a.612.612,0,0,0-.236-.483.886.886,0,0,0-.6-.2.927.927,0,0,0-.579.161.508.508,0,0,0-.209.421.411.411,0,0,0,.194.37,2.39,2.39,0,0,0,.7.238,3.657,3.657,0,0,1,.823.271,1.2,1.2,0,0,1,.468.38.933.933,0,0,1,.152.54,1.015,1.015,0,0,1-.425.852,1.783,1.783,0,0,1-1.1.322,2,2,0,0,1-.843-.168,1.371,1.371,0,0,1-.574-.471,1.135,1.135,0,0,1-.207-.654h.678a.7.7,0,0,0,.273.54,1.059,1.059,0,0,0,.672.2A1.093,1.093,0,0,0,7.9,7.407a.479.479,0,0,0,.233-.416Zm2.48-3.874v.958h.74V4.6h-.74V7.062a.551.551,0,0,0,.1.358.417.417,0,0,0,.337.119,1.642,1.642,0,0,0,.322-.044v.548a1.977,1.977,0,0,1-.521.073.844.844,0,0,1-.685-.275,1.18,1.18,0,0,1-.231-.781V4.6h-.72V4.075H9.94V3.117ZM14.6,7.651a1.44,1.44,0,0,1-1.162.465,1.233,1.233,0,0,1-.965-.368,1.6,1.6,0,0,1-.335-1.091V4.075h.68V6.637q0,.9.733.9a1.015,1.015,0,0,0,1.034-.579V4.075h.678V8.043h-.643Zm1.525-1.624a2.323,2.323,0,0,1,.434-1.47,1.472,1.472,0,0,1,2.236-.079V2.413h.678v5.63h-.624l-.033-.425a1.381,1.381,0,0,1-1.132.5,1.354,1.354,0,0,1-1.126-.565,2.35,2.35,0,0,1-.434-1.473ZM16.8,6.1a1.759,1.759,0,0,0,.279,1.056.9.9,0,0,0,.77.381.989.989,0,0,0,.942-.579V5.139a1,1,0,0,0-.936-.56.9.9,0,0,0-.777.385A1.937,1.937,0,0,0,16.8,6.1Zm4.458,1.938h-.678V4.075h.678Zm-.733-5.018a.4.4,0,0,1,.1-.279.379.379,0,0,1,.3-.114.384.384,0,0,1,.3.114.4.4,0,0,1,.1.279.387.387,0,0,1-.1.275.391.391,0,0,1-.3.11.385.385,0,0,1-.3-.11A.391.391,0,0,1,20.525,3.025Zm4.266,5.018a1.425,1.425,0,0,1-.1-.418,1.513,1.513,0,0,1-1.129.491,1.4,1.4,0,0,1-.962-.332,1.072,1.072,0,0,1-.375-.841,1.121,1.121,0,0,1,.471-.962,2.221,2.221,0,0,1,1.325-.343h.659V5.327a.761.761,0,0,0-.214-.566.854.854,0,0,0-.627-.211.989.989,0,0,0-.609.183.54.54,0,0,0-.246.443h-.68a.936.936,0,0,1,.209-.574,1.439,1.439,0,0,1,.572-.438A1.924,1.924,0,0,1,23.885,4a1.568,1.568,0,0,1,1.072.343,1.236,1.236,0,0,1,.4.944V7.113a2.232,2.232,0,0,0,.139.869v.061Zm-1.126-.517a1.192,1.192,0,0,0,.6-.165,1,1,0,0,0,.414-.429V6.118h-.531q-1.246,0-1.246.729a.617.617,0,0,0,.214.5.817.817,0,0,0,.545.18Zm3.4-3.451.022.5A1.448,1.448,0,0,1,28.277,4q1.257,0,1.268,1.419V8.043h-.678V5.418a.912.912,0,0,0-.2-.634.786.786,0,0,0-.6-.205.979.979,0,0,0-.579.176,1.2,1.2,0,0,0-.389.462V8.043h-.678V4.075Zm4.42-.96v.96h.74V4.6h-.74V7.062a.551.551,0,0,0,.1.358.417.417,0,0,0,.337.119,1.642,1.642,0,0,0,.322-.044v.548a1.977,1.977,0,0,1-.521.073.844.844,0,0,1-.685-.275,1.18,1.18,0,0,1-.231-.781V4.6h-.722V4.075h.722V3.117Zm3.178,5a1.733,1.733,0,0,1-1.312-.53,1.966,1.966,0,0,1-.506-1.417V6.043a2.38,2.38,0,0,1,.225-1.054,1.759,1.759,0,0,1,.631-.724A1.585,1.585,0,0,1,34.583,4a1.485,1.485,0,0,1,1.2.509,2.206,2.206,0,0,1,.429,1.459v.282H33.526a1.41,1.41,0,0,0,.343.947,1.077,1.077,0,0,0,.834.361,1.18,1.18,0,0,0,.609-.146,1.529,1.529,0,0,0,.436-.389l.414.322a1.665,1.665,0,0,1-1.495.767Zm-.083-3.553a.9.9,0,0,0-.689.3,1.452,1.452,0,0,0-.345.838h1.987V5.643a1.292,1.292,0,0,0-.279-.8.851.851,0,0,0-.674-.281Z" transform="translate(509.369 2419.772)" fill="#12263f"/>
        <path id="Path_1333106" data-name="Path 1333106" d="M4.684,5.576H2.372V7.467H5.058v.575H1.668V2.706H5.021v.575H2.372V5H4.684ZM8.137,6.991a.5.5,0,0,0-.207-.429A1.994,1.994,0,0,0,7.207,6.3a3.414,3.414,0,0,1-.817-.264,1.163,1.163,0,0,1-.447-.367A.877.877,0,0,1,5.8,5.164a1.029,1.029,0,0,1,.412-.821,1.609,1.609,0,0,1,1.054-.337,1.657,1.657,0,0,1,1.094.348,1.106,1.106,0,0,1,.42.891H8.1a.612.612,0,0,0-.236-.483.886.886,0,0,0-.6-.2.927.927,0,0,0-.579.161.508.508,0,0,0-.209.421.411.411,0,0,0,.194.37,2.39,2.39,0,0,0,.7.238,3.657,3.657,0,0,1,.823.271,1.2,1.2,0,0,1,.468.38.933.933,0,0,1,.152.54,1.015,1.015,0,0,1-.425.852,1.783,1.783,0,0,1-1.1.322,2,2,0,0,1-.843-.168,1.371,1.371,0,0,1-.574-.471,1.135,1.135,0,0,1-.207-.654h.678a.7.7,0,0,0,.273.54,1.059,1.059,0,0,0,.672.2A1.093,1.093,0,0,0,7.9,7.407a.479.479,0,0,0,.233-.416Zm2.48-3.874v.958h.74V4.6h-.74V7.062a.551.551,0,0,0,.1.358.417.417,0,0,0,.337.119,1.642,1.642,0,0,0,.322-.044v.548a1.977,1.977,0,0,1-.521.073.844.844,0,0,1-.685-.275,1.18,1.18,0,0,1-.231-.781V4.6h-.72V4.075H9.94V3.117ZM14.6,7.651a1.44,1.44,0,0,1-1.162.465,1.233,1.233,0,0,1-.965-.368,1.6,1.6,0,0,1-.335-1.091V4.075h.68V6.637q0,.9.733.9a1.015,1.015,0,0,0,1.034-.579V4.075h.678V8.043h-.643Zm1.525-1.624a2.323,2.323,0,0,1,.434-1.47,1.472,1.472,0,0,1,2.236-.079V2.413h.678v5.63h-.624l-.033-.425a1.381,1.381,0,0,1-1.132.5,1.354,1.354,0,0,1-1.126-.565,2.35,2.35,0,0,1-.434-1.473ZM16.8,6.1a1.759,1.759,0,0,0,.279,1.056.9.9,0,0,0,.77.381.989.989,0,0,0,.942-.579V5.139a1,1,0,0,0-.936-.56.9.9,0,0,0-.777.385A1.937,1.937,0,0,0,16.8,6.1Zm4.458,1.938h-.678V4.075h.678Zm-.733-5.018a.4.4,0,0,1,.1-.279.379.379,0,0,1,.3-.114.384.384,0,0,1,.3.114.4.4,0,0,1,.1.279.387.387,0,0,1-.1.275.391.391,0,0,1-.3.11.385.385,0,0,1-.3-.11A.391.391,0,0,1,20.525,3.025Zm4.266,5.018a1.425,1.425,0,0,1-.1-.418,1.513,1.513,0,0,1-1.129.491,1.4,1.4,0,0,1-.962-.332,1.072,1.072,0,0,1-.375-.841,1.121,1.121,0,0,1,.471-.962,2.221,2.221,0,0,1,1.325-.343h.659V5.327a.761.761,0,0,0-.214-.566.854.854,0,0,0-.627-.211.989.989,0,0,0-.609.183.54.54,0,0,0-.246.443h-.68a.936.936,0,0,1,.209-.574,1.439,1.439,0,0,1,.572-.438A1.924,1.924,0,0,1,23.885,4a1.568,1.568,0,0,1,1.072.343,1.236,1.236,0,0,1,.4.944V7.113a2.232,2.232,0,0,0,.139.869v.061Zm-1.126-.517a1.192,1.192,0,0,0,.6-.165,1,1,0,0,0,.414-.429V6.118h-.531q-1.246,0-1.246.729a.617.617,0,0,0,.214.5.817.817,0,0,0,.545.18Zm3.4-3.451.022.5A1.448,1.448,0,0,1,28.277,4q1.257,0,1.268,1.419V8.043h-.678V5.418a.912.912,0,0,0-.2-.634.786.786,0,0,0-.6-.205.979.979,0,0,0-.579.176,1.2,1.2,0,0,0-.389.462V8.043h-.678V4.075Zm4.42-.96v.96h.74V4.6h-.74V7.062a.551.551,0,0,0,.1.358.417.417,0,0,0,.337.119,1.642,1.642,0,0,0,.322-.044v.548a1.977,1.977,0,0,1-.521.073.844.844,0,0,1-.685-.275,1.18,1.18,0,0,1-.231-.781V4.6h-.722V4.075h.722V3.117Zm3.178,5a1.733,1.733,0,0,1-1.312-.53,1.966,1.966,0,0,1-.506-1.417V6.043a2.38,2.38,0,0,1,.225-1.054,1.759,1.759,0,0,1,.631-.724A1.585,1.585,0,0,1,34.583,4a1.485,1.485,0,0,1,1.2.509,2.206,2.206,0,0,1,.429,1.459v.282H33.526a1.41,1.41,0,0,0,.343.947,1.077,1.077,0,0,0,.834.361,1.18,1.18,0,0,0,.609-.146,1.529,1.529,0,0,0,.436-.389l.414.322a1.665,1.665,0,0,1-1.495.767Zm-.083-3.553a.9.9,0,0,0-.689.3,1.452,1.452,0,0,0-.345.838h1.987V5.643a1.292,1.292,0,0,0-.279-.8.851.851,0,0,0-.674-.281Z" transform="translate(509.369 2388.137)" fill="#12263f"/>
        <path id="Path_1333107" data-name="Path 1333107" d="M19.291,7.858h-2.2l-.419,1.257H15.335l2.268-6.1h1.164l2.284,6.1H19.714ZM17.426,6.839h1.525l-.766-2.282Zm5.391,2.276H21.6V2.681h1.215Zm.809-2.3A2.731,2.731,0,0,1,24.1,5.127,1.543,1.543,0,0,1,25.4,4.5a1.388,1.388,0,0,1,1.093.494V2.681h1.215V9.115H26.617l-.058-.483a1.425,1.425,0,0,1-1.165.566,1.538,1.538,0,0,1-1.284-.631,2.819,2.819,0,0,1-.484-1.752Zm1.211.09a1.789,1.789,0,0,0,.222.977.723.723,0,0,0,.643.34.81.81,0,0,0,.792-.474V5.957a.8.8,0,0,0-.783-.474q-.874,0-.874,1.422Zm3.623-.1a2.688,2.688,0,0,1,.26-1.2,1.9,1.9,0,0,1,.747-.819A2.182,2.182,0,0,1,30.6,4.5a2.064,2.064,0,0,1,1.5.561,2.252,2.252,0,0,1,.647,1.525l.009.31a2.369,2.369,0,0,1-.583,1.673,2.257,2.257,0,0,1-3.127,0,2.413,2.413,0,0,1-.583-1.705Zm1.211.086a1.694,1.694,0,0,0,.243.988.873.873,0,0,0,1.382,0,1.854,1.854,0,0,0,.247-1.08,1.677,1.677,0,0,0-.247-.982.8.8,0,0,0-.7-.348.79.79,0,0,0-.687.346,1.885,1.885,0,0,0-.242,1.069Zm3.887,1.627a.61.61,0,0,1,.195-.469.757.757,0,0,1,.98,0,.61.61,0,0,1,.195.469.6.6,0,0,1-.192.463.769.769,0,0,1-.984,0,.6.6,0,0,1-.193-.465Zm0-3.432a.61.61,0,0,1,.195-.469.757.757,0,0,1,.98,0,.61.61,0,0,1,.195.469.6.6,0,0,1-.192.463.769.769,0,0,1-.984,0,.6.6,0,0,1-.193-.464Zm7.125,4.024a1.344,1.344,0,0,1-.122-.406,1.465,1.465,0,0,1-1.144.49,1.609,1.609,0,0,1-1.1-.386,1.24,1.24,0,0,1-.438-.972,1.281,1.281,0,0,1,.536-1.106,2.635,2.635,0,0,1,1.544-.39h.557v-.26a.747.747,0,0,0-.161-.5.634.634,0,0,0-.509-.189.721.721,0,0,0-.48.146.5.5,0,0,0-.174.4H37.977a1.216,1.216,0,0,1,.243-.729,1.609,1.609,0,0,1,.687-.525,2.5,2.5,0,0,1,1-.19,1.978,1.978,0,0,1,1.33.421A1.473,1.473,0,0,1,41.726,6.1V8.068a2.167,2.167,0,0,0,.18.976v.071Zm-1-.842a1.043,1.043,0,0,0,.494-.12.784.784,0,0,0,.335-.322V7.054h-.453q-.911,0-.965.628l0,.071a.483.483,0,0,0,.161.375A.618.618,0,0,0,39.682,8.273Zm4.252.842H42.719V2.681h1.215Zm3.711-.461a1.518,1.518,0,0,1-1.24.545,1.432,1.432,0,0,1-1.112-.419A1.788,1.788,0,0,1,44.9,7.553V4.583h1.209V7.514q0,.709.643.709a.874.874,0,0,0,.846-.429V4.583h1.215V9.115H47.679Zm3.221-4.072.038.507a1.593,1.593,0,0,1,1.3-.59,1.209,1.209,0,0,1,1.2.691A1.555,1.555,0,0,1,54.771,4.5a1.352,1.352,0,0,1,1.1.429,1.974,1.974,0,0,1,.36,1.292V9.115H55.012V6.224a.863.863,0,0,0-.151-.564.668.668,0,0,0-.532-.178.755.755,0,0,0-.754.52l0,3.11H52.37V6.229a.853.853,0,0,0-.155-.569.675.675,0,0,0-.528-.176.784.784,0,0,0-.746.429v3.2H49.731V4.583Zm7.406,0,.038.524a1.582,1.582,0,0,1,1.3-.607,1.315,1.315,0,0,1,1.072.423,1.974,1.974,0,0,1,.36,1.265V9.115H59.837v-2.9a.786.786,0,0,0-.167-.559.751.751,0,0,0-.557-.174.833.833,0,0,0-.767.436v3.2H57.136V4.583Zm3.5,2.224a2.688,2.688,0,0,1,.26-1.2,1.9,1.9,0,0,1,.748-.817A2.182,2.182,0,0,1,63.915,4.5a2.064,2.064,0,0,1,1.5.561,2.252,2.252,0,0,1,.647,1.525l.009.31a2.369,2.369,0,0,1-.582,1.673,2.257,2.257,0,0,1-3.127,0,2.413,2.413,0,0,1-.584-1.709Zm1.211.086a1.694,1.694,0,0,0,.243.988.873.873,0,0,0,1.382,0,1.854,1.854,0,0,0,.247-1.08,1.677,1.677,0,0,0-.247-.982.8.8,0,0,0-.7-.348.79.79,0,0,0-.687.346,1.885,1.885,0,0,0-.242,1.072Z" transform="translate(423.581 2443.141)" fill="#12263f"/>
        <path id="Path_1333108" data-name="Path 1333108" d="M23.971,3.016V7.033a2.057,2.057,0,0,1-.626,1.583,2.413,2.413,0,0,1-1.711.582,2.441,2.441,0,0,1-1.7-.566,2.021,2.021,0,0,1-.643-1.555V3.016h1.257V7.042a1.162,1.162,0,0,0,.287.873,1.1,1.1,0,0,0,.794.275q1.06,0,1.077-1.114V3.016Zm2.672,0L28.21,7.439l1.558-4.423H31.42v6.1H30.159V7.448l.125-2.878L28.638,9.115h-.864L26.133,4.574l.125,2.873V9.115H25v-6.1Zm7.131,5.089h2.669v1.01H32.519v-6.1h1.255Zm3.368.414a.61.61,0,0,1,.195-.469.757.757,0,0,1,.98,0,.61.61,0,0,1,.195.469.6.6,0,0,1-.192.463.769.769,0,0,1-.984,0,.6.6,0,0,1-.194-.462Zm0-3.432a.61.61,0,0,1,.195-.469.757.757,0,0,1,.98,0,.61.61,0,0,1,.195.469.6.6,0,0,1-.192.463.769.769,0,0,1-.984,0,.6.6,0,0,1-.194-.462Zm6.384,3.133a.794.794,0,0,0,.545-.184.643.643,0,0,0,.218-.49h1.135a1.555,1.555,0,0,1-.251.844,1.658,1.658,0,0,1-.677.595,2.117,2.117,0,0,1-.949.212,1.968,1.968,0,0,1-1.533-.619,2.445,2.445,0,0,1-.561-1.705V6.794a2.417,2.417,0,0,1,.557-1.671A1.945,1.945,0,0,1,43.538,4.5a1.906,1.906,0,0,1,1.364.483,1.716,1.716,0,0,1,.522,1.287H44.288a.832.832,0,0,0-.218-.575.81.81,0,0,0-1.192.087,1.787,1.787,0,0,0-.214,1v.126a1.81,1.81,0,0,0,.214,1.007.738.738,0,0,0,.647.308Zm5.3.429a1.518,1.518,0,0,1-1.24.545,1.432,1.432,0,0,1-1.112-.419,1.788,1.788,0,0,1-.391-1.227V4.583H47.3V7.514q0,.709.643.709a.874.874,0,0,0,.846-.429V4.583H50V9.115h-1.14Zm4.633-2.937a3.289,3.289,0,0,0-.435-.031.887.887,0,0,0-.9.465V9.115H50.914V4.583h1.144l.034.54A1.122,1.122,0,0,1,53.1,4.5a1.269,1.269,0,0,1,.375.054ZM56.5,7.859a.39.39,0,0,0-.22-.35,2.5,2.5,0,0,0-.706-.228q-1.617-.339-1.617-1.374a1.246,1.246,0,0,1,.5-1.007,2.019,2.019,0,0,1,1.309-.4,2.173,2.173,0,0,1,1.38.406,1.28,1.28,0,0,1,.517,1.056H56.454a.585.585,0,0,0-.167-.429.709.709,0,0,0-.524-.167.724.724,0,0,0-.473.138.436.436,0,0,0-.167.352.375.375,0,0,0,.19.324,1.961,1.961,0,0,0,.643.214,5.255,5.255,0,0,1,.762.2,1.253,1.253,0,0,1,.959,1.219,1.18,1.18,0,0,1-.532,1,2.3,2.3,0,0,1-1.374.383A2.4,2.4,0,0,1,54.76,9a1.7,1.7,0,0,1-.693-.557,1.294,1.294,0,0,1-.251-.765h1.148a.632.632,0,0,0,.239.494.947.947,0,0,0,.595.172.877.877,0,0,0,.525-.132.411.411,0,0,0,.177-.346ZM58.269,6.8a2.688,2.688,0,0,1,.26-1.2,1.9,1.9,0,0,1,.748-.817A2.182,2.182,0,0,1,60.41,4.5a2.064,2.064,0,0,1,1.5.561,2.252,2.252,0,0,1,.647,1.525l.009.31a2.369,2.369,0,0,1-.582,1.673,2.257,2.257,0,0,1-3.127,0,2.413,2.413,0,0,1-.584-1.709Zm1.211.086a1.694,1.694,0,0,0,.243.988.873.873,0,0,0,1.382,0,1.854,1.854,0,0,0,.247-1.08,1.677,1.677,0,0,0-.247-.982.8.8,0,0,0-.7-.348.79.79,0,0,0-.687.346,1.885,1.885,0,0,0-.245,1.076Z" transform="translate(581.753 2411.507)" fill="#12263f"/>
        <path id="Path_1333109" data-name="Path 1333109" d="M6.724,6.966V9.115H5.469v-6.1h2.38a2.753,2.753,0,0,1,1.209.251,1.852,1.852,0,0,1,.8.714,1.991,1.991,0,0,1,.28,1.054,1.751,1.751,0,0,1-.614,1.414,2.556,2.556,0,0,1-1.7.517Zm0-1.019H7.846a1.1,1.1,0,0,0,.76-.234.853.853,0,0,0,.262-.67A1.006,1.006,0,0,0,8.6,4.318a.986.986,0,0,0-.729-.285H6.724Zm6.744-.231a3.289,3.289,0,0,0-.435-.033.887.887,0,0,0-.9.465V9.115H10.921V4.583h1.143l.034.54a1.122,1.122,0,0,1,1.01-.624,1.269,1.269,0,0,1,.375.054Zm.243,1.089a2.688,2.688,0,0,1,.26-1.2,1.9,1.9,0,0,1,.748-.816A2.182,2.182,0,0,1,15.851,4.5a2.064,2.064,0,0,1,1.5.561A2.252,2.252,0,0,1,18,6.585L18,6.9a2.369,2.369,0,0,1-.582,1.673A2.024,2.024,0,0,1,15.86,9.2,2.034,2.034,0,0,1,14.3,8.571a2.413,2.413,0,0,1-.584-1.709Zm1.211.086a1.694,1.694,0,0,0,.243.988.873.873,0,0,0,1.382,0,1.854,1.854,0,0,0,.247-1.08,1.677,1.677,0,0,0-.247-.982.8.8,0,0,0-.7-.348.79.79,0,0,0-.687.346,1.885,1.885,0,0,0-.241,1.073Zm3.653-.078a2.656,2.656,0,0,1,.5-1.68,1.609,1.609,0,0,1,1.34-.636,1.411,1.411,0,0,1,1.16.511l.05-.429h1.1V8.961A1.937,1.937,0,0,1,22.451,10a1.735,1.735,0,0,1-.76.67,2.673,2.673,0,0,1-1.148.231,2.485,2.485,0,0,1-.972-.2,1.725,1.725,0,0,1-.721-.51l.536-.737a1.418,1.418,0,0,0,1.1.507,1.038,1.038,0,0,0,.751-.257.965.965,0,0,0,.268-.731V8.726a1.4,1.4,0,0,1-1.1.473,1.6,1.6,0,0,1-1.322-.639,2.656,2.656,0,0,1-.5-1.694Zm1.211.09a1.654,1.654,0,0,0,.247.965.786.786,0,0,0,.679.35A.841.841,0,0,0,21.5,7.8V5.9a.839.839,0,0,0-.783-.416.791.791,0,0,0-.685.357,1.864,1.864,0,0,0-.25,1.066Zm6.409-1.188a3.289,3.289,0,0,0-.435-.033.887.887,0,0,0-.9.465V9.115H23.645V4.583h1.144l.036.54a1.122,1.122,0,0,1,1.01-.624,1.269,1.269,0,0,1,.375.054Zm3.081,3.4a1.344,1.344,0,0,1-.122-.406,1.465,1.465,0,0,1-1.144.49,1.609,1.609,0,0,1-1.1-.386,1.24,1.24,0,0,1-.438-.972A1.281,1.281,0,0,1,27,6.736a2.635,2.635,0,0,1,1.544-.39h.557v-.26a.747.747,0,0,0-.161-.5.634.634,0,0,0-.509-.189.721.721,0,0,0-.48.146.5.5,0,0,0-.174.4H26.571a1.216,1.216,0,0,1,.243-.729A1.609,1.609,0,0,1,27.5,4.69a2.5,2.5,0,0,1,1-.19,1.978,1.978,0,0,1,1.33.421A1.473,1.473,0,0,1,30.319,6.1V8.068a2.167,2.167,0,0,0,.18.976v.071Zm-1-.842a1.043,1.043,0,0,0,.494-.12.784.784,0,0,0,.335-.322V7.054h-.453q-.912,0-.965.628l0,.071a.483.483,0,0,0,.161.375.618.618,0,0,0,.433.144Zm4.111-3.691.038.507a1.593,1.593,0,0,1,1.3-.59,1.209,1.209,0,0,1,1.2.691A1.555,1.555,0,0,1,36.289,4.5a1.352,1.352,0,0,1,1.1.429,1.974,1.974,0,0,1,.36,1.292v2.9H36.532V6.224a.863.863,0,0,0-.151-.564.668.668,0,0,0-.532-.178A.755.755,0,0,0,35.1,6l0,3.11H33.886V6.229a.853.853,0,0,0-.155-.569.675.675,0,0,0-.528-.176.784.784,0,0,0-.746.429v3.2H31.25V4.583ZM41.3,9.115a1.344,1.344,0,0,1-.122-.406,1.465,1.465,0,0,1-1.144.49,1.609,1.609,0,0,1-1.1-.386,1.24,1.24,0,0,1-.438-.972,1.281,1.281,0,0,1,.536-1.106,2.635,2.635,0,0,1,1.544-.39h.557v-.26a.747.747,0,0,0-.161-.5.634.634,0,0,0-.509-.189.721.721,0,0,0-.48.146.5.5,0,0,0-.174.4H38.6a1.216,1.216,0,0,1,.243-.729,1.609,1.609,0,0,1,.687-.525,2.5,2.5,0,0,1,1-.19,1.978,1.978,0,0,1,1.33.421A1.473,1.473,0,0,1,42.345,6.1V8.068a2.167,2.167,0,0,0,.18.976v.071Zm-1-.842a1.043,1.043,0,0,0,.494-.12.784.784,0,0,0,.335-.322V7.054h-.453q-.912,0-.965.628l0,.071a.483.483,0,0,0,.161.375.618.618,0,0,0,.432.144Zm4.859-.05a.794.794,0,0,0,.545-.184.643.643,0,0,0,.218-.49h1.135a1.555,1.555,0,0,1-.251.844,1.658,1.658,0,0,1-.677.595,2.117,2.117,0,0,1-.949.212,1.968,1.968,0,0,1-1.533-.62,2.445,2.445,0,0,1-.561-1.705V6.794a2.417,2.417,0,0,1,.558-1.671A1.945,1.945,0,0,1,45.174,4.5a1.906,1.906,0,0,1,1.364.483,1.716,1.716,0,0,1,.522,1.287H45.923a.832.832,0,0,0-.218-.575.81.81,0,0,0-1.192.087,1.787,1.787,0,0,0-.214,1v.126a1.81,1.81,0,0,0,.214,1.007A.738.738,0,0,0,45.161,8.223Zm3.866.892H47.813V4.583h1.215ZM47.741,3.41a.6.6,0,0,1,.182-.448.785.785,0,0,1,.991,0,.592.592,0,0,1,.184.448.594.594,0,0,1-.187.453.776.776,0,0,1-.984,0,.594.594,0,0,1-.187-.453Zm2.094,3.4a2.688,2.688,0,0,1,.26-1.2,1.9,1.9,0,0,1,.748-.819A2.182,2.182,0,0,1,51.976,4.5a2.064,2.064,0,0,1,1.5.561,2.252,2.252,0,0,1,.647,1.525l.009.31a2.369,2.369,0,0,1-.582,1.673,2.257,2.257,0,0,1-3.127,0,2.413,2.413,0,0,1-.584-1.709Zm1.211.086a1.694,1.694,0,0,0,.243.988.873.873,0,0,0,1.382,0,1.854,1.854,0,0,0,.247-1.08,1.677,1.677,0,0,0-.247-.982.8.8,0,0,0-.7-.348.79.79,0,0,0-.687.346,1.885,1.885,0,0,0-.243,1.069Zm1.169-4.214h1.32l-1.16,1.3H51.39Zm3.774,1.9.038.524a1.582,1.582,0,0,1,1.3-.607,1.315,1.315,0,0,1,1.072.423,1.974,1.974,0,0,1,.36,1.265V9.115H57.552v-2.9a.786.786,0,0,0-.167-.559.751.751,0,0,0-.557-.174.833.833,0,0,0-.767.436v3.2h-1.21V4.583ZM59.738,8.52a.61.61,0,0,1,.195-.469.757.757,0,0,1,.98,0,.61.61,0,0,1,.195.469.6.6,0,0,1-.192.463.769.769,0,0,1-.984,0,.6.6,0,0,1-.192-.463Zm0-3.432a.61.61,0,0,1,.195-.469.757.757,0,0,1,.98,0,.61.61,0,0,1,.195.469.6.6,0,0,1-.192.463.769.769,0,0,1-.984,0,.6.6,0,0,1-.192-.462Zm6.384,3.133a.794.794,0,0,0,.545-.184.643.643,0,0,0,.218-.49H68.02a1.555,1.555,0,0,1-.251.844,1.658,1.658,0,0,1-.677.595,2.117,2.117,0,0,1-.949.212,1.968,1.968,0,0,1-1.533-.619,2.445,2.445,0,0,1-.561-1.707V6.792a2.417,2.417,0,0,1,.557-1.671A1.945,1.945,0,0,1,66.134,4.5a1.906,1.906,0,0,1,1.364.483,1.716,1.716,0,0,1,.522,1.287H66.884a.832.832,0,0,0-.218-.575.81.81,0,0,0-1.192.087,1.787,1.787,0,0,0-.214,1v.126a1.809,1.809,0,0,0,.214,1.007.738.738,0,0,0,.647.31Zm5.3.429a1.518,1.518,0,0,1-1.24.545,1.432,1.432,0,0,1-1.112-.419,1.788,1.788,0,0,1-.391-1.227V4.583h1.211V7.514q0,.709.643.709a.874.874,0,0,0,.846-.429V4.583H72.6V9.115H71.459Zm4.633-2.937a3.289,3.289,0,0,0-.435-.033.887.887,0,0,0-.9.465V9.115H73.51V4.583h1.144l.034.54A1.122,1.122,0,0,1,75.7,4.5a1.269,1.269,0,0,1,.375.054ZM79.1,7.859a.39.39,0,0,0-.22-.35,2.5,2.5,0,0,0-.706-.228q-1.617-.339-1.617-1.374a1.246,1.246,0,0,1,.5-1.007,2.019,2.019,0,0,1,1.309-.4,2.173,2.173,0,0,1,1.38.406,1.28,1.28,0,0,1,.517,1.056H79.049a.586.586,0,0,0-.167-.429.709.709,0,0,0-.524-.169.724.724,0,0,0-.473.138.436.436,0,0,0-.167.352.375.375,0,0,0,.19.324,1.961,1.961,0,0,0,.643.214,5.255,5.255,0,0,1,.762.2,1.253,1.253,0,0,1,.959,1.219,1.182,1.182,0,0,1-.532,1,2.3,2.3,0,0,1-1.374.383,2.4,2.4,0,0,1-1.012-.2,1.7,1.7,0,0,1-.693-.557,1.294,1.294,0,0,1-.251-.765h1.148a.632.632,0,0,0,.239.494.947.947,0,0,0,.595.172.877.877,0,0,0,.525-.132.411.411,0,0,0,.178-.344ZM80.865,6.8a2.688,2.688,0,0,1,.26-1.2,1.9,1.9,0,0,1,.748-.817A2.182,2.182,0,0,1,83.005,4.5a2.064,2.064,0,0,1,1.5.565,2.252,2.252,0,0,1,.647,1.525l.009.31a2.369,2.369,0,0,1-.582,1.673,2.257,2.257,0,0,1-3.127,0,2.413,2.413,0,0,1-.584-1.709Zm1.211.086a1.694,1.694,0,0,0,.243.988.873.873,0,0,0,1.382,0,1.854,1.854,0,0,0,.247-1.08A1.677,1.677,0,0,0,83.7,5.82a.8.8,0,0,0-.7-.348.79.79,0,0,0-.687.346,1.885,1.885,0,0,0-.243,1.075Z" transform="translate(572.102 2496.223)" fill="#12263f"/>
        <path id="Path_1333110" data-name="Path 1333110" d="M20.669,7.858h-2.2l-.419,1.257H16.711l2.27-6.1h1.165l2.283,6.1H21.092ZM18.8,6.839h1.525l-.766-2.282Zm5.027-2.258.038.524a1.582,1.582,0,0,1,1.3-.607,1.315,1.315,0,0,1,1.072.423,1.974,1.974,0,0,1,.36,1.265V9.115h-1.21v-2.9a.786.786,0,0,0-.167-.559.751.751,0,0,0-.557-.174.833.833,0,0,0-.767.436v3.2H22.692V4.583Zm6.317,4.533a1.344,1.344,0,0,1-.122-.406,1.465,1.465,0,0,1-1.144.49,1.609,1.609,0,0,1-1.1-.386,1.24,1.24,0,0,1-.438-.972,1.281,1.281,0,0,1,.536-1.106,2.635,2.635,0,0,1,1.544-.39h.557v-.26a.747.747,0,0,0-.161-.5.634.634,0,0,0-.509-.189.721.721,0,0,0-.48.146.5.5,0,0,0-.174.4H27.442a1.216,1.216,0,0,1,.243-.729,1.609,1.609,0,0,1,.687-.525,2.5,2.5,0,0,1,1-.19,1.978,1.978,0,0,1,1.33.421A1.473,1.473,0,0,1,31.191,6.1V8.068a2.167,2.167,0,0,0,.18.976v.071Zm-1-.842a1.043,1.043,0,0,0,.494-.12.784.784,0,0,0,.335-.322V7.054h-.453q-.912,0-.965.628l0,.071a.483.483,0,0,0,.161.375A.618.618,0,0,0,29.147,8.273Zm3.033.247a.61.61,0,0,1,.195-.469.757.757,0,0,1,.98,0,.61.61,0,0,1,.195.469.6.6,0,0,1-.192.463.769.769,0,0,1-.984,0A.6.6,0,0,1,32.18,8.52Zm0-3.432a.61.61,0,0,1,.195-.469.757.757,0,0,1,.98,0,.61.61,0,0,1,.195.469.6.6,0,0,1-.192.463.769.769,0,0,1-.984,0,.6.6,0,0,1-.192-.462Zm7.125,4.026a1.344,1.344,0,0,1-.122-.406,1.465,1.465,0,0,1-1.144.49,1.609,1.609,0,0,1-1.1-.386,1.24,1.24,0,0,1-.438-.972,1.281,1.281,0,0,1,.536-1.106,2.635,2.635,0,0,1,1.544-.39h.557v-.26a.747.747,0,0,0-.161-.5.634.634,0,0,0-.509-.189.721.721,0,0,0-.48.146.5.5,0,0,0-.174.4H36.6a1.216,1.216,0,0,1,.243-.729,1.609,1.609,0,0,1,.687-.525,2.5,2.5,0,0,1,1-.19,1.978,1.978,0,0,1,1.33.421A1.473,1.473,0,0,1,40.347,6.1V8.068a2.167,2.167,0,0,0,.18.976v.071Zm-1-.842a1.043,1.043,0,0,0,.494-.12.784.784,0,0,0,.335-.322V7.054h-.453q-.912,0-.965.628l0,.071a.483.483,0,0,0,.161.375A.618.618,0,0,0,38.3,8.273Zm4.252.842H41.339V2.681h1.215Zm3.711-.461a1.518,1.518,0,0,1-1.24.545,1.432,1.432,0,0,1-1.112-.419,1.788,1.788,0,0,1-.391-1.227V4.583h1.211V7.514q0,.709.643.709a.874.874,0,0,0,.846-.429V4.583h1.215V9.115H46.3Zm3.222-4.072.038.507a1.593,1.593,0,0,1,1.3-.59,1.209,1.209,0,0,1,1.2.691A1.555,1.555,0,0,1,53.393,4.5a1.352,1.352,0,0,1,1.1.429,1.974,1.974,0,0,1,.36,1.292V9.115H53.636V6.224a.863.863,0,0,0-.151-.564.668.668,0,0,0-.532-.178A.755.755,0,0,0,52.2,6l0,3.11H50.991V6.229a.853.853,0,0,0-.155-.569.675.675,0,0,0-.528-.176.784.784,0,0,0-.746.429v3.2H48.353V4.583Zm7.406,0,.038.524a1.582,1.582,0,0,1,1.3-.607,1.315,1.315,0,0,1,1.072.423,1.974,1.974,0,0,1,.36,1.265V9.115H58.458v-2.9a.786.786,0,0,0-.167-.559.751.751,0,0,0-.557-.174.833.833,0,0,0-.767.436v3.2H55.756V4.583Zm3.5,2.224a2.688,2.688,0,0,1,.26-1.2,1.9,1.9,0,0,1,.748-.817A2.182,2.182,0,0,1,62.538,4.5a2.064,2.064,0,0,1,1.5.561,2.252,2.252,0,0,1,.647,1.525l.009.31a2.369,2.369,0,0,1-.582,1.673,2.257,2.257,0,0,1-3.127,0A2.413,2.413,0,0,1,60.4,6.86Zm1.211.086a1.694,1.694,0,0,0,.243.988.873.873,0,0,0,1.382,0A1.854,1.854,0,0,0,63.48,6.8a1.677,1.677,0,0,0-.247-.982.8.8,0,0,0-.7-.348.79.79,0,0,0-.687.346,1.885,1.885,0,0,0-.242,1.072Z" transform="translate(423.581 2496.223)" fill="#12263f"/>
        <path id="Path_1333111" data-name="Path 1333111" d="M-2652.473-3901.725h-76.673v-.536h76.673Z" transform="translate(3234.226 6302.237)" fill="#b52426"/>
        <path id="Path_1333112" data-name="Path 1333112" d="M-2652.473-3901.725h-76.673v-.536h76.673Z" transform="translate(3234.226 6334.408)" fill="#b52426"/>
        <path id="Path_1333113" data-name="Path 1333113" d="M-2661.068-3800.656h-67.388v-.536h65.338l-65.467-36.762.262-.468Z" transform="translate(3234.226 6302.237)" fill="#b52426"/>
        <path id="Path_1333114" data-name="Path 1333114" d="M-2728.991-3816.516l-.309-.438,76.674-53.878.308.438Z" transform="translate(3234.226 6302.237)" fill="#b52426"/>
      </g>
    </g>
  </g>
</svg>
