<svg xmlns="http://www.w3.org/2000/svg" xmlns:xlink="http://www.w3.org/1999/xlink" width="113.842" height="101.604" viewBox="0 0 113.842 101.604">
  <defs>
    <clipPath id="clip-path">
      <rect id="Rectangle_447908" data-name="Rectangle 447908" width="92" height="89" transform="translate(806.051 2698)" fill="#fff" stroke="#707070" stroke-width="1"/>
    </clipPath>
  </defs>
  <g id="Group_1212420" data-name="Group 1212420" transform="translate(-792.781 -2693.272)">
    <g id="Group_1211836" data-name="Group 1211836" transform="translate(792.781 2693.272)">
      <ellipse id="Ellipse_22502" data-name="Ellipse 22502" cx="28.658" cy="28.658" rx="28.658" ry="28.658" transform="translate(56.527 44.289)" fill="#d0b2ea"/>
      <ellipse id="Ellipse_22503" data-name="Ellipse 22503" cx="20.842" cy="20.842" rx="20.842" ry="20.842" fill="#d0b2ea"/>
    </g>
    <g id="Mask_Group_1099777" data-name="Mask Group 1099777" clip-path="url(#clip-path)">
      <g id="Layer_10" data-name="Layer 10" transform="translate(805.363 2695.812)">
        <path id="Path_1333845" data-name="Path 1333845" d="M72.7,6.5V71.127l-18.588,18.6H8.085a2.854,2.854,0,0,1-2.854-2.854V6.5A2.854,2.854,0,0,1,8.085,3.648H69.843A2.854,2.854,0,0,1,72.7,6.5Z" fill="#f6f0e0"/>
        <path id="Path_1333846" data-name="Path 1333846" d="M72.7,71.127l-18.588,18.6V73.981a2.854,2.854,0,0,1,2.854-2.854Z" fill="#bbcae9"/>
        <circle id="Ellipse_22592" data-name="Ellipse 22592" cx="17.994" cy="17.994" r="17.994" transform="translate(52.157 26.506)" fill="#63b9f0"/>
        <path id="Path_1333847" data-name="Path 1333847" d="M66.591,53.518a4.777,4.777,0,0,1-3.384-1.395l-4.42-4.408a2.918,2.918,0,0,1,4.121-4.132l3.683,3.673,9.462-9.46a2.918,2.918,0,1,1,4.127,4.127l-10.2,10.2a4.78,4.78,0,0,1-3.391,1.4Z" fill="#f6f0e0"/>
        <path id="Path_1333848" data-name="Path 1333848" d="M11.615,52.282V55.2a.547.547,0,1,1-1.094,0V52.282a.547.547,0,0,1,1.094,0Zm-.547,6.748a.547.547,0,0,0-.547.547v2.918a.547.547,0,1,0,1.094,0V59.577a.547.547,0,0,0-.547-.547Zm0-14.59a.547.547,0,0,0-.547.547V47.9a.547.547,0,0,0,1.094,0V44.987a.547.547,0,0,0-.547-.547Zm0,21.885a.547.547,0,0,0-.547.547V69.79a.547.547,0,0,0,1.094,0V66.872a.547.547,0,0,0-.547-.547Zm0,14.59a.547.547,0,0,0-.547.547V84.38a.547.547,0,0,0,1.094,0V81.462a.547.547,0,0,0-.547-.547Zm0-43.77a.547.547,0,0,0-.547.547v2.918a.547.547,0,1,0,1.094,0V37.691a.547.547,0,0,0-.547-.547Zm0,36.475a.547.547,0,0,0-.547.547v2.918a.547.547,0,0,0,1.094,0V74.167a.547.547,0,0,0-.547-.547Zm0-58.361a.547.547,0,0,0-.547.547v2.918a.547.547,0,0,0,1.094,0V15.806a.547.547,0,0,0-.547-.547Zm0-7.3a.547.547,0,0,0-.547.547v2.918a.547.547,0,1,0,1.094,0V8.511a.547.547,0,0,0-.547-.547Zm0,21.885a.547.547,0,0,0-.547.547v2.918a.547.547,0,0,0,1.094,0V30.4a.547.547,0,0,0-.547-.547Zm0-7.3a.547.547,0,0,0-.547.547v2.918a.547.547,0,0,0,1.094,0V23.1a.547.547,0,0,0-.547-.547Zm5.889.061H65.044a1.459,1.459,0,0,0,0-2.918H16.957a1.459,1.459,0,0,0,0,2.918Zm35.2-11.672H65.044a1.459,1.459,0,0,0,0-2.918H52.156a1.459,1.459,0,0,0,0,2.918Zm-35.2,23.344H38.965a1.459,1.459,0,1,0,0-2.918H16.957a1.459,1.459,0,1,0,0,2.918Zm0,29.18H38.965a1.459,1.459,0,0,0,0-2.918H16.957a1.459,1.459,0,0,0,0,2.918Zm30.158,8.754H16.957a1.459,1.459,0,0,0,0,2.918H47.114a1.459,1.459,0,0,0,0-2.918Zm0,5.836H16.957a1.459,1.459,0,0,0,0,2.918H47.114a1.459,1.459,0,0,0,0-2.918ZM74.156,63.535v7.592a1.459,1.459,0,0,1-.427,1.032l-18.588,18.6a1.458,1.458,0,0,1-1.032.427H8.086a4.318,4.318,0,0,1-4.313-4.313V6.5A4.318,4.318,0,0,1,8.086,2.188H69.843A4.318,4.318,0,0,1,74.156,6.5V25.465a19.451,19.451,0,0,1,0,38.069Zm-4.979,9.051H56.963a1.4,1.4,0,0,0-1.395,1.395V86.206ZM71.238,63.9c-.362.02-.72.055-1.087.055a19.386,19.386,0,0,1-14.312-6.323H16.957a1.459,1.459,0,0,1,0-2.918H53.625a19.363,19.363,0,0,1-1.5-2.918H16.957a1.459,1.459,0,1,1,0-2.918H51.211a19.344,19.344,0,0,1-.441-2.918H16.957a1.459,1.459,0,1,1,0-2.918H50.77a19.446,19.446,0,0,1,8.407-14.59H16.957a1.459,1.459,0,1,1,0-2.918H65.724c.032,0,.058.016.089.018a19.4,19.4,0,0,1,4.338-.5c.367,0,.725.035,1.087.055V6.5a1.4,1.4,0,0,0-1.395-1.395H8.086A1.4,1.4,0,0,0,6.691,6.5V86.876a1.4,1.4,0,0,0,1.395,1.395H52.65V73.981a4.318,4.318,0,0,1,4.313-4.313H71.238ZM86.686,44.5A16.536,16.536,0,1,0,70.151,61.036,16.536,16.536,0,0,0,86.686,44.5ZM81.21,42.955l-10.2,10.195a6.262,6.262,0,0,1-8.837.007l-4.42-4.408a4.377,4.377,0,1,1,6.182-6.2l2.65,2.644,8.432-8.43a4.377,4.377,0,0,1,6.189,6.191Zm-2.063-4.128a1.461,1.461,0,0,0-2.063,0l-9.462,9.46a1.458,1.458,0,0,1-2.062,0l-3.682-3.672a1.459,1.459,0,1,0-2.062,2.066l4.42,4.408a3.427,3.427,0,0,0,4.713,0l10.2-10.2a1.461,1.461,0,0,0,0-2.065Z" fill="#0b2230"/>
      </g>
    </g>
  </g>
</svg>
